<?xml version="1.0" encoding="iso-8859-1"?>
<!-- Generator: Adobe Illustrator 18.1.1, SVG Export Plug-In . SVG Version: 6.00 Build 0)  -->
<svg version="1.1" id="Capa_1" xmlns="http://www.w3.org/2000/svg" xmlns:xlink="http://www.w3.org/1999/xlink" x="0px" y="0px"
	 viewBox="0 0 382.059 382.059" style="enable-background:new 0 0 382.059 382.059;" xml:space="preserve">
<g>
	<path style="fill:#010002;" d="M222.859,330.9V188.398c0-4.487-3.642-8.129-8.129-8.129c-4.487,0-8.129,3.642-8.129,8.129V330.9
		c0,4.487,3.642,8.129,8.129,8.129C219.226,339.028,222.859,335.387,222.859,330.9z"/>
	<path style="fill:#010002;" d="M271.273,330.9V188.398c0-4.487-3.642-8.129-8.129-8.129s-8.129,3.642-8.129,8.129V330.9
		c0,4.487,3.642,8.129,8.129,8.129S271.273,335.387,271.273,330.9z"/>
	<path style="fill:#010002;" d="M362.931,371.542V330.9c0-4.487-3.642-8.129-8.129-8.129h-36.107V172.059
		c0-4.487-3.642-8.129-8.129-8.129c-4.487,0-8.129,3.642-8.129,8.129V330.9c0,4.487,3.642,8.129,8.129,8.129h36.107v24.386H35.39
		v-24.386h36.091c4.487,0,8.129-3.642,8.129-8.129v-158.84c0-4.487-3.642-8.129-8.129-8.129c-4.487,0-8.129,3.642-8.129,8.129
		v150.712H27.261c-4.487,0-8.129,3.642-8.129,8.129v40.643c0,4.487,3.642,8.129,8.129,8.129h327.541
		C359.297,379.671,362.931,376.029,362.931,371.542z"/>
	<path style="fill:#010002;" d="M127.04,330.9V188.398c0-4.487-3.642-8.129-8.129-8.129c-4.487,0-8.129,3.642-8.129,8.129V330.9
		c0,4.487,3.642,8.129,8.129,8.129C123.398,339.028,127.04,335.387,127.04,330.9z"/>
	<path style="fill:#010002;" d="M175.445,330.9V188.398c0-4.487-3.642-8.129-8.129-8.129c-4.487,0-8.129,3.642-8.129,8.129V330.9
		c0,4.487,3.642,8.129,8.129,8.129C171.804,339.028,175.445,335.387,175.445,330.9z"/>
	<path style="fill:#010002;" d="M0.38,142.081c1.065,3.382,4.202,5.682,7.755,5.682h365.794c3.536,0,6.665-2.284,7.747-5.657
		c1.073-3.373-0.154-7.047-3.04-9.096L196.937,3.895c-2.804-2-6.56-2.008-9.372-0.033L3.461,132.969
		C0.559,135.009-0.693,138.691,0.38,142.081z M192.198,20.469l156.264,111.028H33.886L192.198,20.469z"/>
</g>
<g>
</g>
<g>
</g>
<g>
</g>
<g>
</g>
<g>
</g>
<g>
</g>
<g>
</g>
<g>
</g>
<g>
</g>
<g>
</g>
<g>
</g>
<g>
</g>
<g>
</g>
<g>
</g>
<g>
</g>
</svg>
